<svg width="16" height="13" xmlns="http://www.w3.org/2000/svg">

 <g>
  <title>background</title>
  <rect fill="none" id="canvas_background" height="15" width="18" y="-1" x="-1"/>
 </g>
 <g>
  <title>Layer 1</title>
  <g id="surface1">
   <path id="svg_1" fill-rule="nonzero" fill="#0084b9" d="m1.918009,7.394589l9.88281,0l-3.02734,3.63281c-0.29297,0.35547 -0.2461,0.88282 0.10937,1.17579c0.35547,0.29687 0.88282,0.24609 1.17578,-0.10547l4.16797,-5c0.02735,-0.04297 0.05078,-0.08203 0.07422,-0.125c0,-0.04297 0.03906,-0.07032 0.0586,-0.10938c0.03515,-0.09765 0.05468,-0.19922 0.05859,-0.30078c-0.00391,-0.10156 -0.02344,-0.20312 -0.05859,-0.30078c0,-0.03906 -0.04297,-0.06641 -0.0586,-0.10938c-0.02344,-0.04296 -0.04687,-0.08203 -0.07422,-0.125l-4.16797,-5c-0.16015,-0.1875 -0.39453,-0.29687 -0.64062,-0.29687c-0.19531,0 -0.38281,0.06641 -0.53516,0.19141c-0.16797,0.14062 -0.27734,0.34375 -0.29687,0.5625c-0.01953,0.22265 0.04687,0.4414 0.1875,0.61328l3.02734,3.63281l-9.88281,0c-0.46094,0 -0.83594,0.37109 -0.83594,0.83203c0,0.46094 0.375,0.83203 0.83594,0.83203zm0,0"/>
  </g>
 </g>
</svg>